{
  "accessors": [
    {
      "bufferView": 2,
      "componentType": 5126,
      "count": 50435,
      "max": [
        8.933180809020996,
        2.661849021911621,
        14.046907424926758
      ],
      "min": [
        -10.741833686828613,
        -37.70092010498047,
        -10.632116317749023
      ],
      "type": "VEC3"
    },
    {
      "bufferView": 2,
      "byteOffset": 605220,
      "componentType": 5126,
      "count": 50435,
      "max": [
        0.9999997615814209,
        0.9998603463172913,
        0.9715981483459473
      ],
      "min": [
        -0.9999894499778748,
        -0.9999943375587463,
        -0.999986469745636
      ],
      "type": "VEC3"
    },
    {
      "bufferView": 1,
      "componentType": 5126,
      "count": 50435,
      "max": [
        0.9921079874038696,
        0.9989629983901978
      ],
      "min": [
        0.0010209999745711684,
        0.0052280002273619175
      ],
      "type": "VEC2"
    },
    {
      "bufferView": 0,
      "componentType": 5125,
      "count": 282402,
      "type": "SCALAR"
    },
    {
      "bufferView": 2,
      "byteOffset": 1210440,
      "componentType": 5126,
      "count": 38713,
      "max": [
        8.083020210266113,
        -1.0404080152511597,
        11.569035530090332
      ],
      "min": [
        -10.705814361572266,
        -37.65956115722656,
        -10.877296447753906
      ],
      "type": "VEC3"
    },
    {
      "bufferView": 2,
      "byteOffset": 1674996,
      "componentType": 5126,
      "count": 38713,
      "max": [
        0.9999997615814209,
        0.999991774559021,
        0.9180921316146851
      ],
      "min": [
        -0.9999897480010986,
        -0.9999943375587463,
        -0.999987781047821
      ],
      "type": "VEC3"
    },
    {
      "bufferView": 1,
      "byteOffset": 403480,
      "componentType": 5126,
      "count": 38713,
      "max": [
        0.9890549778938293,
        0.9989979863166809
      ],
      "min": [
        0.001075000036507845,
        0.008503000251948833
      ],
      "type": "VEC2"
    },
    {
      "bufferView": 0,
      "byteOffset": 1129608,
      "componentType": 5125,
      "count": 210408,
      "type": "SCALAR"
    },
    {
      "bufferView": 2,
      "byteOffset": 2139552,
      "componentType": 5126,
      "count": 65532,
      "max": [
        8.14922046661377,
        2.9109859466552734,
        14.658193588256836
      ],
      "min": [
        -10.605521202087402,
        -37.74501037597656,
        -9.948554039001465
      ],
      "type": "VEC3"
    },
    {
      "bufferView": 2,
      "byteOffset": 2925936,
      "componentType": 5126,
      "count": 65532,
      "max": [
        0.999995231628418,
        0.9999558925628662,
        0.9884597659111023
      ],
      "min": [
        -0.9999974966049194,
        -0.9984457492828369,
        -0.9999786615371704
      ],
      "type": "VEC3"
    },
    {
      "bufferView": 1,
      "byteOffset": 713184,
      "componentType": 5126,
      "count": 65532,
      "max": [
        0.9964050054550171,
        0.9990090131759644
      ],
      "min": [
        0.000977999996393919,
        0.01463400013744831
      ],
      "type": "VEC2"
    },
    {
      "bufferView": 0,
      "byteOffset": 1971240,
      "componentType": 5125,
      "count": 364650,
      "type": "SCALAR"
    },
    {
      "bufferView": 2,
      "byteOffset": 3712320,
      "componentType": 5126,
      "count": 3990,
      "max": [
        5.075771808624268,
        -16.826221466064453,
        6.515769958496094
      ],
      "min": [
        -5.426984786987305,
        -33.825828552246094,
        -4.301807880401611
      ],
      "type": "VEC3"
    },
    {
      "bufferView": 2,
      "byteOffset": 3760200,
      "componentType": 5126,
      "count": 3990,
      "max": [
        0.9999179840087891,
        0.9600725769996643,
        0.7985702753067017
      ],
      "min": [
        -0.9999446272850037,
        -0.8568068146705627,
        -0.9984679818153381
      ],
      "type": "VEC3"
    },
    {
      "bufferView": 1,
      "byteOffset": 1237440,
      "componentType": 5126,
      "count": 3990,
      "max": [
        0.96697998046875,
        0.998757004737854
      ],
      "min": [
        0.25506800413131714,
        0.10999800264835358
      ],
      "type": "VEC2"
    },
    {
      "bufferView": 0,
      "byteOffset": 3429840,
      "componentType": 5125,
      "count": 15099,
      "type": "SCALAR"
    },
    {
      "bufferView": 2,
      "byteOffset": 3808080,
      "componentType": 5126,
      "count": 42004,
      "max": [
        8.946585655212402,
        3.070202112197876,
        14.752062797546387
      ],
      "min": [
        -10.924878120422363,
        -37.77642059326172,
        -10.877296447753906
      ],
      "type": "VEC3"
    },
    {
      "bufferView": 2,
      "byteOffset": 4312128,
      "componentType": 5126,
      "count": 42004,
      "max": [
        0.9999542236328125,
        0.999987006187439,
        0.9985026717185974
      ],
      "min": [
        -0.9999982118606567,
        -0.9998762607574463,
        -0.9999908804893494
      ],
      "type": "VEC3"
    },
    {
      "bufferView": 1,
      "byteOffset": 1269360,
      "componentType": 5126,
      "count": 42004,
      "max": [
        0.9661700129508972,
        0.9989920258522034
      ],
      "min": [
        0.0010049999691545963,
        0.08781000226736069
      ],
      "type": "VEC2"
    },
    {
      "bufferView": 0,
      "byteOffset": 3490236,
      "componentType": 5125,
      "count": 226482,
      "type": "SCALAR"
    }
  ],
  "asset": {
    "extras": {
      "author": "Geoffrey Marchal (https://sketchfab.com/geoffreymarchal)",
      "license": "CC-BY-4.0 (http://creativecommons.org/licenses/by/4.0/)",
      "source": "https://sketchfab.com/3d-models/sphinx-f5faeb5d570a4b0f825b0bfa6817a27c",
      "title": "Sphinx"
    },
    "generator": "Sketchfab-12.68.0",
    "version": "2.0"
  },
  "bufferViews": [
    {
      "buffer": 0,
      "byteLength": 4396164,
      "name": "floatBufferViews",
      "target": 34963
    },
    {
      "buffer": 0,
      "byteLength": 1605392,
      "byteOffset": 4396164,
      "byteStride": 8,
      "name": "floatBufferViews",
      "target": 34962
    },
    {
      "buffer": 0,
      "byteLength": 4816176,
      "byteOffset": 6001556,
      "byteStride": 12,
      "name": "floatBufferViews",
      "target": 34962
    }
  ],
  "buffers": [
    {
      "byteLength": 10817732,
      "uri": "scene.bin"
    }
  ],
  "images": [
    {
      "uri": "textures/Material_0_baseColor.jpeg"
    },
    {
      "uri": "textures/Material_1_baseColor.jpeg"
    },
    {
      "uri": "textures/Material_2_baseColor.jpeg"
    },
    {
      "uri": "textures/Material_3_baseColor.jpeg"
    }
  ],
  "materials": [
    {
      "doubleSided": true,
      "name": "Material_0",
      "pbrMetallicRoughness": {
        "baseColorTexture": {
          "index": 0
        },
        "metallicFactor": 0.0,
        "roughnessFactor": 0.6
      }
    },
    {
      "doubleSided": true,
      "name": "Material_1",
      "pbrMetallicRoughness": {
        "baseColorTexture": {
          "index": 1
        },
        "metallicFactor": 0.0,
        "roughnessFactor": 0.6
      }
    },
    {
      "doubleSided": true,
      "name": "Material_2",
      "pbrMetallicRoughness": {
        "baseColorTexture": {
          "index": 2
        },
        "metallicFactor": 0.0,
        "roughnessFactor": 0.6
      }
    },
    {
      "doubleSided": true,
      "name": "Material_3",
      "pbrMetallicRoughness": {
        "baseColorTexture": {
          "index": 3
        },
        "metallicFactor": 0.0,
        "roughnessFactor": 0.6
      }
    }
  ],
  "meshes": [
    {
      "name": "Object_0",
      "primitives": [
        {
          "attributes": {
            "NORMAL": 1,
            "POSITION": 0,
            "TEXCOORD_0": 2
          },
          "indices": 3,
          "material": 0,
          "mode": 4
        }
      ]
    },
    {
      "name": "Object_1",
      "primitives": [
        {
          "attributes": {
            "NORMAL": 5,
            "POSITION": 4,
            "TEXCOORD_0": 6
          },
          "indices": 7,
          "material": 1,
          "mode": 4
        }
      ]
    },
    {
      "name": "Object_2",
      "primitives": [
        {
          "attributes": {
            "NORMAL": 9,
            "POSITION": 8,
            "TEXCOORD_0": 10
          },
          "indices": 11,
          "material": 2,
          "mode": 4
        }
      ]
    },
    {
      "name": "Object_3",
      "primitives": [
        {
          "attributes": {
            "NORMAL": 13,
            "POSITION": 12,
            "TEXCOORD_0": 14
          },
          "indices": 15,
          "material": 2,
          "mode": 4
        }
      ]
    },
    {
      "name": "Object_4",
      "primitives": [
        {
          "attributes": {
            "NORMAL": 17,
            "POSITION": 16,
            "TEXCOORD_0": 18
          },
          "indices": 19,
          "material": 3,
          "mode": 4
        }
      ]
    }
  ],
  "nodes": [
    {
      "children": [
        1
      ],
      "matrix": [
        0.060931230425069316,
        -0.000788026264946779,
        -0.022543618689751632,
        0.0,
        0.021599565286544387,
        0.020758761249685773,
        0.05765399538980898,
        0.0,
        0.006503420479462285,
        -0.06156219361141214,
        0.0197294877147811,
        0.0,
        5.51338005065918,
        9.30552673339843,
        31.81974792480469,
        1.0
      ],
      "name": "Sketchfab_model"
    },
    {
      "children": [
        2,
        3,
        4,
        5,
        6
      ],
      "name": "uu-exported.obj.cleaner"
    },
    {
      "mesh": 0,
      "name": "Object_2"
    },
    {
      "mesh": 1,
      "name": "Object_3"
    },
    {
      "mesh": 2,
      "name": "Object_4"
    },
    {
      "mesh": 3,
      "name": "Object_5"
    },
    {
      "mesh": 4,
      "name": "Object_6"
    }
  ],
  "samplers": [
    {
      "magFilter": 9729,
      "minFilter": 9987,
      "wrapS": 10497,
      "wrapT": 10497
    }
  ],
  "scene": 0,
  "scenes": [
    {
      "name": "Sketchfab_Scene",
      "nodes": [
        0
      ]
    }
  ],
  "textures": [
    {
      "sampler": 0,
      "source": 0
    },
    {
      "sampler": 0,
      "source": 1
    },
    {
      "sampler": 0,
      "source": 2
    },
    {
      "sampler": 0,
      "source": 3
    }
  ]
}
